<svg xmlns="http://www.w3.org/2000/svg" xmlns:xlink="http://www.w3.org/1999/xlink" width="512" zoomAndPan="magnify" viewBox="0 0 384 383.999986" height="512" preserveAspectRatio="xMidYMid meet" version="1.2"><g id="1d801afe0f"><path style=" stroke:none;fill-rule:nonzero;fill:#d5bffd;fill-opacity:1;" d="M 316.824219 353.550781 L 281.765625 340.988281 C 279.777344 340.273438 277.550781 340.351562 275.5625 341.066406 C 273.65625 341.785156 271.90625 343.136719 270.875 344.964844 L 252.03125 377.082031 C 248.136719 383.761719 238.277344 382.886719 235.652344 375.652344 L 209.097656 302.667969 L 191.609375 254.570312 L 172.449219 201.9375 L 191.609375 194.941406 L 265.226562 168.148438 L 299.097656 261.246094 L 328.433594 341.863281 C 331.058594 349.097656 324.0625 356.09375 316.824219 353.550781 Z M 316.824219 353.550781 "/><path style=" stroke:none;fill-rule:nonzero;fill:#d5bffd;fill-opacity:1;" d="M 172.410156 201.921875 L 235.628906 375.621094 C 238.277344 382.878906 248.160156 383.738281 252.039062 377.097656 L 270.832031 345.003906 C 271.90625 343.160156 273.625 341.761719 275.585938 341.042969 L 218.804688 185.027344 Z M 172.410156 201.921875 "/><path style=" stroke:none;fill-rule:nonzero;fill:#d5bffd;fill-opacity:1;" d="M 210.769531 201.9375 L 191.609375 254.570312 L 174.117188 302.667969 L 147.5625 375.652344 C 144.941406 382.886719 135.003906 383.761719 131.1875 377.082031 L 112.34375 344.964844 C 111.308594 343.136719 109.5625 341.785156 107.574219 341.066406 C 105.664062 340.351562 103.441406 340.273438 101.453125 340.988281 L 66.390625 353.550781 C 59.15625 356.09375 52.160156 349.097656 54.785156 341.863281 L 84.121094 261.246094 L 117.988281 168.148438 L 191.609375 194.941406 Z M 210.769531 201.9375 "/><path style=" stroke:none;fill-rule:nonzero;fill:#d5bffd;fill-opacity:1;" d="M 210.792969 201.921875 L 147.570312 375.621094 C 144.925781 382.878906 135.042969 383.738281 131.164062 377.097656 L 112.367188 345.003906 C 111.292969 343.160156 109.578125 341.761719 107.613281 341.042969 L 164.394531 185.027344 Z M 210.792969 201.921875 "/><path style=" stroke:none;fill-rule:nonzero;fill:#d5bffd;fill-opacity:1;" d="M 299.097656 261.246094 C 274.929688 283.746094 243.683594 298.851562 209.097656 302.667969 L 191.609375 254.570312 L 174.117188 302.667969 C 139.535156 298.851562 108.289062 283.746094 84.121094 261.246094 L 117.988281 168.148438 L 191.609375 194.941406 L 265.226562 168.148438 Z M 299.097656 261.246094 "/><path style=" stroke:none;fill-rule:nonzero;fill:#d9d9d9;fill-opacity:1;" d="M 337.457031 145.855469 C 337.457031 148.242188 337.398438 150.628906 337.28125 153.011719 C 337.164062 155.398438 336.988281 157.777344 336.753906 160.152344 C 336.519531 162.527344 336.230469 164.898438 335.878906 167.257812 C 335.527344 169.617188 335.121094 171.96875 334.65625 174.3125 C 334.1875 176.652344 333.664062 178.980469 333.085938 181.296875 C 332.503906 183.613281 331.871094 185.910156 331.175781 188.195312 C 330.484375 190.480469 329.734375 192.746094 328.929688 194.992188 C 328.125 197.242188 327.269531 199.46875 326.355469 201.671875 C 325.441406 203.878906 324.472656 206.058594 323.453125 208.21875 C 322.433594 210.375 321.359375 212.507812 320.234375 214.613281 C 319.109375 216.71875 317.933594 218.792969 316.707031 220.839844 C 315.480469 222.890625 314.203125 224.90625 312.875 226.890625 C 311.550781 228.875 310.175781 230.824219 308.753906 232.742188 C 307.332031 234.660156 305.863281 236.542969 304.347656 238.386719 C 302.835938 240.230469 301.277344 242.039062 299.671875 243.808594 C 298.070312 245.578125 296.425781 247.304688 294.738281 248.992188 C 293.046875 250.679688 291.320312 252.324219 289.550781 253.929688 C 287.78125 255.53125 285.976562 257.089844 284.132812 258.605469 C 282.285156 260.121094 280.40625 261.585938 278.488281 263.007812 C 276.570312 264.429688 274.617188 265.804688 272.632812 267.132812 C 270.648438 268.457031 268.632812 269.734375 266.585938 270.960938 C 264.539062 272.1875 262.460938 273.363281 260.355469 274.488281 C 258.25 275.617188 256.121094 276.6875 253.960938 277.707031 C 251.804688 278.730469 249.621094 279.695312 247.417969 280.609375 C 245.210938 281.523438 242.984375 282.382812 240.738281 283.1875 C 238.492188 283.992188 236.226562 284.738281 233.941406 285.433594 C 231.65625 286.125 229.355469 286.761719 227.039062 287.339844 C 224.726562 287.921875 222.398438 288.445312 220.054688 288.910156 C 217.714844 289.375 215.363281 289.785156 213.003906 290.132812 C 210.640625 290.484375 208.273438 290.777344 205.898438 291.011719 C 203.519531 291.246094 201.140625 291.421875 198.757812 291.535156 C 196.375 291.652344 193.988281 291.710938 191.601562 291.710938 C 189.214844 291.710938 186.828125 291.652344 184.445312 291.535156 C 182.058594 291.421875 179.679688 291.246094 177.304688 291.011719 C 174.929688 290.777344 172.558594 290.484375 170.199219 290.132812 C 167.835938 289.785156 165.488281 289.375 163.144531 288.910156 C 160.804688 288.445312 158.476562 287.921875 156.160156 287.339844 C 153.84375 286.761719 151.546875 286.125 149.261719 285.433594 C 146.976562 284.738281 144.710938 283.992188 142.464844 283.1875 C 140.214844 282.382812 137.988281 281.523438 135.785156 280.609375 C 133.578125 279.695312 131.398438 278.730469 129.238281 277.707031 C 127.082031 276.6875 124.949219 275.617188 122.84375 274.492188 C 120.738281 273.363281 118.664062 272.1875 116.617188 270.960938 C 114.566406 269.734375 112.550781 268.457031 110.566406 267.132812 C 108.582031 265.804688 106.632812 264.429688 104.714844 263.007812 C 102.796875 261.585938 100.914062 260.121094 99.070312 258.605469 C 97.226562 257.089844 95.417969 255.53125 93.648438 253.929688 C 91.878906 252.324219 90.152344 250.679688 88.464844 248.992188 C 86.777344 247.304688 85.132812 245.578125 83.527344 243.808594 C 81.925781 242.039062 80.367188 240.230469 78.851562 238.386719 C 77.335938 236.542969 75.871094 234.660156 74.449219 232.742188 C 73.027344 230.824219 71.652344 228.875 70.324219 226.890625 C 69 224.90625 67.722656 222.890625 66.496094 220.839844 C 65.269531 218.792969 64.09375 216.71875 62.964844 214.613281 C 61.839844 212.507812 60.769531 210.375 59.746094 208.21875 C 58.726562 206.058594 57.761719 203.878906 56.847656 201.671875 C 55.933594 199.46875 55.074219 197.242188 54.269531 194.992188 C 53.464844 192.746094 52.71875 190.480469 52.023438 188.195312 C 51.332031 185.910156 50.695312 183.613281 50.117188 181.296875 C 49.535156 178.980469 49.011719 176.652344 48.546875 174.3125 C 48.082031 171.96875 47.671875 169.617188 47.324219 167.257812 C 46.972656 164.898438 46.679688 162.527344 46.445312 160.152344 C 46.210938 157.777344 46.035156 155.398438 45.917969 153.011719 C 45.804688 150.628906 45.746094 148.242188 45.746094 145.855469 C 45.746094 143.46875 45.804688 141.082031 45.917969 138.699219 C 46.035156 136.316406 46.210938 133.933594 46.445312 131.558594 C 46.679688 129.183594 46.972656 126.816406 47.324219 124.453125 C 47.671875 122.09375 48.082031 119.742188 48.546875 117.402344 C 49.011719 115.058594 49.535156 112.730469 50.117188 110.417969 C 50.695312 108.101562 51.332031 105.800781 52.023438 103.515625 C 52.71875 101.230469 53.464844 98.964844 54.269531 96.71875 C 55.074219 94.472656 55.933594 92.246094 56.847656 90.039062 C 57.761719 87.835938 58.726562 85.652344 59.746094 83.496094 C 60.769531 81.335938 61.839844 79.207031 62.964844 77.101562 C 64.09375 74.996094 65.269531 72.917969 66.496094 70.871094 C 67.722656 68.824219 69 66.808594 70.324219 64.824219 C 71.652344 62.839844 73.027344 60.886719 74.449219 58.96875 C 75.871094 57.050781 77.335938 55.171875 78.851562 53.324219 C 80.367188 51.480469 81.925781 49.675781 83.527344 47.90625 C 85.132812 46.136719 86.777344 44.410156 88.464844 42.71875 C 90.152344 41.03125 91.878906 39.386719 93.648438 37.785156 C 95.417969 36.179688 97.226562 34.621094 99.070312 33.109375 C 100.914062 31.59375 102.796875 30.125 104.714844 28.703125 C 106.632812 27.28125 108.582031 25.90625 110.566406 24.582031 C 112.550781 23.253906 114.566406 21.976562 116.617188 20.75 C 118.664062 19.523438 120.738281 18.347656 122.84375 17.222656 C 124.949219 16.097656 127.082031 15.023438 129.238281 14.003906 C 131.398438 12.984375 133.578125 12.015625 135.785156 11.101562 C 137.988281 10.1875 140.214844 9.332031 142.464844 8.527344 C 144.710938 7.722656 146.976562 6.972656 149.261719 6.28125 C 151.546875 5.585938 153.84375 4.949219 156.160156 4.371094 C 158.476562 3.792969 160.804688 3.269531 163.144531 2.800781 C 165.488281 2.335938 167.835938 1.929688 170.199219 1.578125 C 172.558594 1.226562 174.929688 0.9375 177.304688 0.703125 C 179.679688 0.46875 182.058594 0.292969 184.445312 0.175781 C 186.828125 0.0585938 189.214844 0 191.601562 0 C 193.988281 0 196.375 0.0585938 198.757812 0.175781 C 201.140625 0.292969 203.519531 0.46875 205.898438 0.703125 C 208.273438 0.9375 210.640625 1.226562 213.003906 1.578125 C 215.363281 1.929688 217.714844 2.335938 220.054688 2.800781 C 222.398438 3.269531 224.726562 3.792969 227.039062 4.371094 C 229.355469 4.949219 231.65625 5.585938 233.941406 6.28125 C 236.226562 6.972656 238.492188 7.722656 240.738281 8.527344 C 242.984375 9.332031 245.210938 10.1875 247.417969 11.101562 C 249.621094 12.015625 251.804688 12.984375 253.960938 14.003906 C 256.121094 15.023438 258.25 16.097656 260.355469 17.222656 C 262.460938 18.347656 264.539062 19.523438 266.585938 20.75 C 268.632812 21.976562 270.648438 23.253906 272.632812 24.582031 C 274.617188 25.90625 276.570312 27.28125 278.488281 28.703125 C 280.40625 30.125 282.285156 31.59375 284.132812 33.109375 C 285.976562 34.621094 287.78125 36.179688 289.550781 37.785156 C 291.320312 39.386719 293.046875 41.03125 294.738281 42.71875 C 296.425781 44.410156 298.070312 46.136719 299.671875 47.90625 C 301.277344 49.675781 302.835938 51.480469 304.347656 53.324219 C 305.863281 55.171875 307.332031 57.050781 308.753906 58.96875 C 310.175781 60.886719 311.550781 62.839844 312.875 64.824219 C 314.203125 66.808594 315.480469 68.824219 316.707031 70.871094 C 317.933594 72.917969 319.109375 74.996094 320.234375 77.101562 C 321.359375 79.207031 322.433594 81.335938 323.453125 83.496094 C 324.472656 85.652344 325.441406 87.835938 326.355469 90.039062 C 327.269531 92.246094 328.125 94.472656 328.929688 96.71875 C 329.734375 98.964844 330.484375 101.230469 331.175781 103.515625 C 331.871094 105.800781 332.503906 108.101562 333.085938 110.417969 C 333.664062 112.730469 334.1875 115.058594 334.65625 117.402344 C 335.121094 119.742188 335.527344 122.09375 335.878906 124.453125 C 336.230469 126.816406 336.519531 129.183594 336.753906 131.558594 C 336.988281 133.933594 337.164062 136.316406 337.28125 138.699219 C 337.398438 141.082031 337.457031 143.46875 337.457031 145.855469 Z M 337.457031 145.855469 "/><path style=" stroke:none;fill-rule:nonzero;fill:#a6a6a6;fill-opacity:1;" d="M 191.601562 21.601562 C 123.078125 21.601562 67.34375 77.339844 67.34375 145.847656 C 67.34375 214.355469 123.085938 270.105469 191.601562 270.105469 C 260.109375 270.105469 315.847656 214.363281 315.847656 145.847656 C 315.855469 77.339844 260.117188 21.601562 191.601562 21.601562 Z M 191.601562 255.699219 C 131.027344 255.699219 81.75 206.421875 81.75 145.847656 C 81.75 85.28125 131.027344 36.007812 191.601562 36.007812 C 252.167969 36.007812 301.441406 85.28125 301.441406 145.847656 C 301.449219 206.421875 252.175781 255.699219 191.601562 255.699219 Z M 191.601562 255.699219 "/><path style=" stroke:none;fill-rule:nonzero;fill:#a6a6a6;fill-opacity:1;" d="M 261.683594 133.890625 C 265.914062 129.765625 263.574219 122.585938 257.730469 121.734375 L 220.15625 116.273438 C 217.835938 115.9375 215.832031 114.476562 214.792969 112.378906 L 197.984375 78.328125 C 195.367188 73.03125 187.816406 73.03125 185.207031 78.328125 L 168.402344 112.378906 C 167.359375 114.476562 165.355469 115.9375 163.035156 116.273438 L 125.460938 121.734375 C 119.617188 122.585938 117.28125 129.765625 121.511719 133.890625 L 148.699219 160.390625 C 150.378906 162.027344 151.148438 164.386719 150.75 166.695312 L 144.335938 204.117188 C 143.34375 209.9375 149.449219 214.371094 154.671875 211.628906 L 188.277344 193.964844 C 190.351562 192.875 192.832031 192.875 194.90625 193.964844 L 228.515625 211.628906 C 233.738281 214.378906 239.851562 209.9375 238.847656 204.117188 L 232.433594 166.695312 C 232.035156 164.378906 232.808594 162.027344 234.484375 160.390625 Z M 261.683594 133.890625 "/><path style=" stroke:none;fill-rule:nonzero;fill:#ffffff;fill-opacity:1;" d="M 102.96875 79.160156 C 95.585938 86.546875 83.59375 86.546875 76.210938 79.160156 L 76.195312 79.167969 C 83.578125 86.5625 83.578125 98.542969 76.195312 105.929688 L 76.210938 105.945312 C 83.59375 98.550781 95.585938 98.550781 102.96875 105.945312 L 102.988281 105.929688 C 95.59375 98.542969 95.59375 86.554688 102.988281 79.167969 Z M 102.96875 79.160156 "/><path style=" stroke:none;fill-rule:nonzero;fill:#ffffff;fill-opacity:1;" d="M 121.34375 50.953125 C 128.738281 43.558594 140.71875 43.558594 148.105469 50.953125 L 148.113281 50.9375 C 140.71875 43.542969 140.71875 31.5625 148.113281 24.175781 L 148.105469 24.167969 C 140.710938 31.5625 128.730469 31.5625 121.34375 24.167969 L 121.335938 24.175781 C 128.730469 31.570312 128.730469 43.550781 121.335938 50.9375 Z M 121.34375 50.953125 "/><path style=" stroke:none;fill-rule:nonzero;fill:#ffffff;fill-opacity:1;" d="M 152.453125 60.476562 L 152.4375 60.460938 C 141.203125 71.695312 122.988281 71.695312 111.746094 60.460938 L 111.730469 60.476562 C 122.964844 71.710938 122.964844 89.925781 111.730469 101.167969 L 111.746094 101.183594 C 122.980469 89.949219 141.195312 89.949219 152.4375 101.183594 L 152.453125 101.167969 C 141.21875 89.925781 141.21875 71.710938 152.453125 60.476562 Z M 152.453125 60.476562 "/></g></svg>